<svg width="25" height="25" viewBox="0 0 25 25" fill="none" xmlns="http://www.w3.org/2000/svg">
<path d="M21.0896 0.100391H2.67065L2.53979 0.111134C2.28135 0.155875 2.04897 0.332288 1.93628 0.569141L1.89038 0.692188V0.693165L0.125732 7.40996L0.124756 7.41094C0.108012 7.47652 0.100211 7.54442 0.100342 7.61211V23.4939C0.100386 23.9188 0.481197 24.2996 0.906006 24.2996H23.4939C23.9187 24.2996 24.2995 23.9188 24.2996 23.4939V15.0232C24.2994 14.5985 23.9186 14.2176 23.4939 14.2176H14.0642V12.5525C14.0673 12.1642 13.7564 11.8025 13.3718 11.7479H13.3699C13.1827 11.7247 12.9888 11.7698 12.8308 11.8729L8.948 14.3436C8.71328 14.4929 8.60237 14.7634 8.60229 15.0232C8.60229 15.2832 8.7132 15.5545 8.948 15.7039L12.8298 18.1736L12.8308 18.1746C13.0814 18.3316 13.391 18.2988 13.6306 18.1668C13.8702 18.0348 14.0629 17.7906 14.0642 17.4949V15.8289H22.6882V22.6883H1.71167V8.41777H22.6882V11.493L22.6912 11.5721C22.7296 11.9682 23.0918 12.3103 23.4939 12.3104C23.9225 12.3104 24.3054 11.9216 24.2996 11.493V7.61113C24.2991 7.517 24.2825 7.42304 24.2498 7.33477L21.7791 0.61797V0.616993C21.6721 0.335716 21.398 0.127801 21.0984 0.100391L21.0896 0.0994148V0.100391ZM12.4529 16.032L10.8757 15.0232L12.4529 14.0145V16.032ZM11.7468 6.80547H1.95093L3.28784 1.71172H11.7468V6.80547ZM22.3357 6.80547H13.3591V1.71172H20.4578L22.3357 6.80547Z" fill="#9F9F9F" stroke="#9F9F9F" stroke-width="0.2"/>
</svg>
