<svg width="139" height="42" viewBox="0 0 139 42" fill="none" xmlns="http://www.w3.org/2000/svg">
<path fill-rule="evenodd" clip-rule="evenodd" d="M20.6505 0C23.3624 0 26.0484 0.534471 28.5539 1.57227C31.0592 2.61006 33.3356 4.13134 35.2531 6.04883C37.1706 7.96638 38.6919 10.2427 39.7296 12.748C40.7674 15.2534 41.3019 17.9386 41.3019 20.6504C41.3019 24.7347 40.0906 28.728 37.8214 32.124C35.5524 35.5198 32.3271 38.1665 28.5539 39.7295C24.7805 41.2925 20.6281 41.7011 16.6222 40.9043C12.6165 40.1075 8.93701 38.1409 6.04899 35.2529C3.16098 32.3649 1.19348 28.6855 0.396642 24.6797C-0.40017 20.6738 0.00942076 16.5215 1.57242 12.748C3.13541 8.97471 5.78199 5.74958 9.17789 3.48047C12.5738 1.2114 16.5663 6.16858e-05 20.6505 0ZM14.2013 14.1064C12.0094 14.1064 10.2136 14.8201 8.81559 16.2461C7.46276 17.7006 6.71267 19.6152 6.71793 21.6016C6.72329 23.5879 7.48342 25.498 8.84391 26.9453C10.2608 28.3624 12.1413 29.0713 14.4845 29.0713C17.205 29.0714 19.2646 28.0601 20.6632 26.0381L17.715 24.3379C16.9968 25.2827 15.9383 25.7549 14.5402 25.7549C12.3675 25.7546 11.0354 24.8668 10.5441 23.0908L21.2296 23.0918C21.321 22.5964 21.3682 22.0936 21.3713 21.5898C21.4255 19.6158 20.6972 17.6999 19.3449 16.2607C18.69 15.5565 17.8921 15.0003 17.005 14.6289C16.1181 14.2576 15.1624 14.0789 14.2013 14.1064ZM30.5597 14.1055C29.5703 14.0946 28.5884 14.2802 27.6711 14.6514C26.7539 15.0225 25.9195 15.5718 25.216 16.2676C24.5125 16.9634 23.9536 17.792 23.5724 18.7051C23.1912 19.6183 22.9943 20.5983 22.9943 21.5879C22.9943 22.5775 23.1912 23.5574 23.5724 24.4707C23.9536 25.3839 24.5124 26.2123 25.216 26.9082C25.9196 27.6041 26.7537 28.1542 27.6711 28.5254C28.4738 28.8502 29.3261 29.0321 30.1896 29.0654L30.5617 29.0703C31.8863 29.0847 33.1899 28.7369 34.3312 28.0645C35.4345 27.4248 36.345 26.4991 36.967 25.3857L33.7921 23.5723C33.5143 24.1522 33.0641 24.6319 32.5031 24.9463C31.9021 25.2833 31.2223 25.4546 30.5334 25.4424C30.0292 25.4578 29.527 25.3693 29.0588 25.1816C28.5906 24.9939 28.1666 24.711 27.8127 24.3516C27.1198 23.5925 26.7355 22.602 26.7355 21.5742C26.7355 20.5464 27.1198 19.556 27.8127 18.7969C28.1666 18.4375 28.5906 18.1546 29.0588 17.9668C29.527 17.779 30.0291 17.6898 30.5334 17.7051C31.2147 17.6954 31.8861 17.8715 32.4748 18.2148C33.0347 18.5374 33.4836 19.0223 33.7638 19.6045L36.9093 17.7617C36.3221 16.6452 35.4262 15.7208 34.3293 15.0977C33.1851 14.4336 31.8826 14.0908 30.5597 14.1055ZM14.2004 17.3936C14.9991 17.3833 15.7801 17.6315 16.4259 18.1016C17.1126 18.6307 17.5729 19.4007 17.715 20.2559H10.4865C10.6489 19.4234 11.1013 18.6754 11.7629 18.1445C12.4663 17.6243 13.3261 17.3594 14.2004 17.3936Z" fill="#F7CA11"/>
<path d="M50.7342 26.9029C49.6851 27.9429 48.3516 28.6492 46.9018 28.9327C45.452 29.2162 43.9507 29.0642 42.5871 28.4959C41.2234 27.9276 40.0585 26.9685 39.2391 25.7393C38.4197 24.5101 37.9825 23.0658 37.9825 21.5885C37.9825 20.1112 38.4197 18.667 39.2391 17.4378C40.0585 16.2086 41.2234 15.2494 42.5871 14.6811C43.9507 14.1128 45.452 13.9608 46.9018 14.2443C48.3516 14.5278 49.6851 15.2341 50.7342 16.2742C52.1325 17.6895 52.9167 19.5989 52.9167 21.5885C52.9167 23.5781 52.1325 25.4875 50.7342 26.9029ZM42.6704 24.3943C43.0256 24.757 43.4519 25.0424 43.9225 25.2326C44.3932 25.4229 44.8981 25.5137 45.4056 25.4996C45.9151 25.5128 46.4219 25.4216 46.8947 25.2315C47.3676 25.0414 47.7966 24.7565 48.1552 24.3943C48.8655 23.6326 49.2605 22.6299 49.2605 21.5884C49.2605 20.5469 48.8655 19.5441 48.1552 18.7824C47.7966 18.4203 47.3676 18.1353 46.8947 17.9452C46.4219 17.7552 45.9151 17.6639 45.4056 17.6771C44.8981 17.663 44.3932 17.7539 43.9225 17.9441C43.4519 18.1343 43.0256 18.4197 42.6704 18.7824C41.9686 19.5484 41.5792 20.5495 41.5792 21.5884C41.5792 22.6272 41.9686 23.6284 42.6704 24.3943Z" fill="#271C47"/>
<path d="M63.3769 14.1059C64.0903 14.0845 64.8003 14.212 65.4616 14.4804C66.1229 14.7488 66.721 15.1521 67.2177 15.6646C68.2281 16.7041 68.7334 18.1401 68.7336 19.9726V28.6739H65.0775V20.4269C65.0775 19.483 64.8224 18.7599 64.312 18.2578C64.0396 18.0024 63.7185 17.8043 63.368 17.6752C63.0175 17.5462 62.6447 17.489 62.2716 17.5068C61.8533 17.4875 61.4356 17.5557 61.0451 17.707C60.6547 17.8583 60.3001 18.0894 60.004 18.3856C59.4373 18.9714 59.1539 19.8501 59.1539 21.0216V28.6736H55.4975V14.502H59.1539V16.0891C60.0416 14.7666 61.4493 14.1052 63.3769 14.105" fill="#271C47"/>
<path d="M80.9252 14.5027H84.95L79.5647 28.6742H75.3983L70.0127 14.5027H74.0375L77.4719 24.4207L80.9252 14.5027Z" fill="#271C47"/>
<path d="M89.2232 23.091C89.714 24.8673 91.0461 25.7555 93.2194 25.7557C94.618 25.7557 95.6763 25.2832 96.3943 24.3382L99.3422 26.0389C97.9435 28.0609 95.8839 29.0718 93.1633 29.0716C90.8198 29.0716 88.9396 28.3631 87.5229 26.9459C86.1622 25.4986 85.4023 23.5882 85.397 21.6016C85.3917 19.6151 86.1415 17.7007 87.4945 16.2461C88.8924 14.8202 90.6875 14.1072 92.8799 14.1072C93.8411 14.0796 94.7972 14.2575 95.6842 14.629C96.5712 15.0004 97.3688 15.5569 98.0236 16.2612C99.3762 17.7002 100.105 19.6157 100.05 21.5899C100.047 22.0937 100 22.5964 99.9088 23.0919L89.2232 23.091ZM89.1668 20.2565H96.3931C96.2511 19.4012 95.7903 18.6314 95.1035 18.1022C94.4577 17.6322 93.6773 17.3837 92.8787 17.3939C92.0043 17.3597 91.1444 17.6246 90.4409 18.145C89.7794 18.6758 89.3276 19.424 89.1656 20.2565" fill="#271C47"/>
<path d="M106.261 16.9398C106.562 16.0801 107.16 15.3563 107.948 14.8991C108.745 14.4422 109.65 14.2073 110.569 14.2188V18.3003C109.523 18.1527 108.458 18.3948 107.579 18.9805C106.7 19.5664 106.261 20.5396 106.261 21.9V28.6741H102.605V14.5026H106.261V16.9398Z" fill="#271C47"/>
<path d="M115.615 18.5273C115.615 18.9055 115.865 19.2125 116.366 19.4483C116.953 19.7149 117.566 19.9237 118.194 20.0719C118.925 20.2558 119.644 20.483 120.348 20.7521C121.073 21.0317 121.706 21.5077 122.176 22.1268C122.693 22.8211 122.958 23.6714 122.927 24.5368C122.927 25.9921 122.384 27.1117 121.298 27.8956C120.211 28.6794 118.856 29.0711 117.231 29.0705C114.32 29.0705 112.336 27.9463 111.278 25.6979L114.453 23.9123C114.868 25.1407 115.794 25.7547 117.231 25.7545C118.535 25.7545 119.186 25.3482 119.186 24.5356C119.186 24.158 118.936 23.8511 118.436 23.6147C117.847 23.3475 117.235 23.134 116.607 22.9769C115.876 22.7837 115.157 22.5472 114.453 22.2687C113.737 21.9865 113.107 21.5223 112.625 20.922C112.11 20.2649 111.844 19.4465 111.874 18.612C111.848 17.9781 111.975 17.3473 112.244 16.7726C112.513 16.198 112.916 15.6964 113.419 15.3102C114.524 14.4823 115.879 14.0571 117.259 14.1051C118.357 14.0918 119.441 14.3601 120.406 14.8845C121.346 15.4008 122.122 16.1721 122.645 17.1096L119.526 18.8099C119.344 18.3642 119.028 17.986 118.622 17.727C118.216 17.4681 117.739 17.3413 117.258 17.3639C116.844 17.3484 116.435 17.457 116.083 17.6757C115.938 17.764 115.818 17.889 115.736 18.0382C115.654 18.1874 115.613 18.3556 115.616 18.5258" fill="#271C47"/>
<path d="M128.172 23.0906C128.662 24.8668 129.994 25.7551 132.168 25.7553C133.566 25.7553 134.625 25.2828 135.342 24.3378L138.29 26.0384C136.892 28.0605 134.832 29.0714 132.111 29.0712C129.768 29.0712 127.888 28.3626 126.471 26.9455C125.11 25.4984 124.35 23.5881 124.344 21.6016C124.339 19.615 125.088 17.7005 126.441 16.2457C127.839 14.8198 129.634 14.1068 131.826 14.1068C132.788 14.0792 133.744 14.2571 134.631 14.6285C135.518 15 136.316 15.5564 136.97 16.2608C138.323 17.6998 139.052 19.6153 138.997 21.5894C138.994 22.0933 138.947 22.596 138.855 23.0915L128.172 23.0906ZM128.115 20.2561H135.342C135.201 19.4007 134.74 18.6309 134.053 18.1018C133.407 17.6318 132.627 17.3833 131.828 17.3935C130.954 17.3593 130.094 17.6242 129.39 18.1446C128.729 18.6756 128.277 19.4236 128.115 20.2561Z" fill="#271C47"/>
<path d="M50.733 26.9038C49.6839 27.9438 48.3504 28.6501 46.9006 28.9336C45.4507 29.2171 43.9494 29.0651 42.5858 28.4968C41.2222 27.9285 40.0573 26.9694 39.2379 25.7402C38.4185 24.511 37.9812 23.0667 37.9812 21.5894C37.9812 20.1121 38.4185 18.6679 39.2379 17.4387C40.0573 16.2095 41.2222 15.2503 42.5858 14.682C43.9494 14.1137 45.4507 13.9617 46.9006 14.2452C48.3504 14.5287 49.6839 15.235 50.733 16.2751C52.1313 17.6904 52.9154 19.5998 52.9154 21.5894C52.9154 23.579 52.1313 25.4884 50.733 26.9038ZM42.6692 24.3952C43.0244 24.7579 43.4506 25.0433 43.9213 25.2335C44.392 25.4237 44.8969 25.5146 45.4043 25.5005C45.9138 25.5137 46.4206 25.4225 46.8935 25.2324C47.3664 25.0423 47.7953 24.7574 48.1539 24.3952C48.8643 23.6335 49.2593 22.6308 49.2593 21.5893C49.2593 20.5478 48.8643 19.545 48.1539 18.7833C47.7953 18.4212 47.3664 18.1362 46.8935 17.9461C46.4206 17.756 45.9138 17.6648 45.4043 17.678C44.8969 17.6639 44.392 17.7548 43.9213 17.945C43.4506 18.1352 43.0244 18.4206 42.6692 18.7833C41.9673 19.5493 41.578 20.5504 41.578 21.5893C41.578 22.6281 41.9673 23.6293 42.6692 24.3952Z" fill="#271C47"/>
<path d="M63.3757 14.1059C64.0891 14.0845 64.7991 14.2121 65.4604 14.4804C66.1217 14.7488 66.7198 15.1522 67.2164 15.6647C68.2269 16.7042 68.7322 18.1402 68.7324 19.9727V28.6739H65.0763V20.427C65.0763 19.483 64.8211 18.76 64.3108 18.2579C64.0383 18.0024 63.7173 17.8043 63.3668 17.6753C63.0163 17.5463 62.6434 17.489 62.2704 17.5069C61.8521 17.4875 61.4343 17.5557 61.0439 17.707C60.6534 17.8584 60.2988 18.0895 60.0028 18.3856C59.436 18.9715 59.1526 19.8501 59.1526 21.0216V28.6736H55.4963V14.5021H59.1526V16.0891C60.0403 14.7666 61.448 14.1052 63.3757 14.105" fill="#271C47"/>
<path d="M80.924 14.5023H84.9488L79.5635 28.6738H75.3971L70.0115 14.5023H74.0363L77.4707 24.4203L80.924 14.5023Z" fill="#271C47"/>
<path d="M89.2219 23.0911C89.7128 24.8673 91.0448 25.7555 93.2181 25.7557C94.6168 25.7557 95.6751 25.2833 96.3931 24.3383L99.3409 26.0389C97.9423 28.061 95.8827 29.0719 93.1621 29.0717C90.8185 29.0717 88.9383 28.3631 87.5216 26.946C86.1609 25.4986 85.401 23.5883 85.3957 21.6017C85.3905 19.6151 86.1403 17.7008 87.4933 16.2462C88.8911 14.8202 90.6862 14.1073 92.8786 14.1073C93.8399 14.0797 94.796 14.2576 95.683 14.629C96.57 15.0005 97.3675 15.5569 98.0223 16.2613C99.3749 17.7002 100.104 19.6158 100.049 21.5899C100.046 22.0938 99.9987 22.5964 99.9076 23.092L89.2219 23.0911ZM89.1656 20.2566H96.3919C96.2499 19.4012 95.789 18.6314 95.1022 18.1023C94.4565 17.6323 93.676 17.3838 92.8774 17.394C92.003 17.3597 91.1431 17.6246 90.4396 18.145C89.7781 18.6759 89.3263 19.424 89.1644 20.2566" fill="#271C47"/>
<path d="M106.261 16.9399C106.562 16.0802 107.16 15.3564 107.948 14.8991C108.745 14.4423 109.65 14.2074 110.569 14.2189V18.3004C109.523 18.1528 108.458 18.3949 107.579 18.9806C106.7 19.5664 106.261 20.5396 106.261 21.9001V28.6742H102.605V14.5027H106.261V16.9399Z" fill="#271C47"/>
<path d="M115.613 18.5278C115.613 18.906 115.864 19.213 116.365 19.4487C116.952 19.7154 117.564 19.9242 118.193 20.0723C118.923 20.2563 119.643 20.4835 120.347 20.7526C121.072 21.0322 121.705 21.5082 122.175 22.1272C122.692 22.8216 122.957 23.6718 122.926 24.5373C122.926 25.9926 122.383 27.1122 121.296 27.896C120.21 28.6799 118.854 29.0716 117.229 29.071C114.319 29.071 112.335 27.9468 111.277 25.6984L114.452 23.9128C114.867 25.1411 115.793 25.7552 117.23 25.755C118.533 25.755 119.185 25.3487 119.185 24.5361C119.185 24.1585 118.935 23.8515 118.434 23.6152C117.845 23.348 117.234 23.1345 116.606 22.9774C115.875 22.7842 115.155 22.5477 114.452 22.2691C113.736 21.987 113.106 21.5228 112.624 20.9225C112.108 20.2654 111.842 19.447 111.873 18.6125C111.847 17.9786 111.974 17.3477 112.242 16.7731C112.511 16.1985 112.914 15.6969 113.418 15.3107C114.523 14.4828 115.878 14.0576 117.258 14.1056C118.356 14.0923 119.439 14.3606 120.404 14.885C121.345 15.4013 122.121 16.1725 122.643 17.1101L119.525 18.8104C119.343 18.3647 119.027 17.9864 118.621 17.7275C118.214 17.4686 117.738 17.3417 117.257 17.3643C116.843 17.3489 116.434 17.4575 116.082 17.6761C115.937 17.7645 115.817 17.8895 115.735 18.0387C115.653 18.1879 115.611 18.356 115.615 18.5263" fill="#271C47"/>
<path d="M128.17 23.0903C128.661 24.8665 129.993 25.7547 132.167 25.7549C133.565 25.7549 134.623 25.2824 135.341 24.3375L138.289 26.0381C136.891 28.0601 134.831 29.071 132.11 29.0708C129.767 29.0708 127.887 28.3623 126.47 26.9452C125.109 25.498 124.349 23.5878 124.343 21.6012C124.338 19.6146 125.087 17.7002 126.44 16.2454C127.838 14.8194 129.633 14.1064 131.825 14.1064C132.786 14.0788 133.743 14.2567 134.63 14.6282C135.517 14.9996 136.314 15.5561 136.969 16.2604C138.322 17.6995 139.05 19.615 138.996 21.5891C138.993 22.093 138.945 22.5956 138.854 23.0912L128.17 23.0903ZM128.114 20.2557H135.341C135.199 19.4004 134.739 18.6306 134.052 18.1014C133.406 17.6314 132.625 17.383 131.827 17.3932C130.952 17.3589 130.092 17.6238 129.389 18.1442C128.728 18.6752 128.276 19.4233 128.114 20.2557Z" fill="#271C47"/>
</svg>
